<svg width="23" height="27" viewBox="0 0 23 27" fill="none" xmlns="http://www.w3.org/2000/svg">
<path d="M16.9688 0.375H6.03125C4.58138 0.376737 3.19139 0.953465 2.16618 1.97868C1.14096 3.00389 0.564237 4.39388 0.5625 5.84375V21.1562C0.563079 21.7362 0.793733 22.2923 1.20384 22.7024C1.61395 23.1125 2.17002 23.3432 2.75 23.3438V26.625H4.9375V23.3438H18.0625V26.625H20.25V23.3438C20.8299 23.3429 21.3858 23.1121 21.7958 22.7021C22.2059 22.292 22.4366 21.7361 22.4375 21.1562V5.84375C22.4358 4.39388 21.859 3.00389 20.8338 1.97868C19.8086 0.953465 18.4186 0.376737 16.9688 0.375ZM20.25 6.9375V13.5H2.75V6.9375H20.25ZM6.03125 2.5625H16.9688C17.6452 2.56451 18.3044 2.77586 18.8558 3.16754C19.4073 3.55921 19.824 4.112 20.0487 4.75H2.95125C3.17597 4.112 3.59267 3.55921 4.14415 3.16754C4.69563 2.77586 5.35484 2.56451 6.03125 2.5625ZM2.75 21.1562V15.6875H20.2511L20.2522 21.1562H2.75Z" fill="#283C43"/>
</svg>
