<svg width="13" height="13" viewBox="0 0 13 13" fill="none" xmlns="http://www.w3.org/2000/svg">
<path d="M7.13703 6.49748L11.9208 1.709C12.0052 1.62419 12.0526 1.50939 12.0525 1.38974C12.0524 1.27009 12.0049 1.15535 11.9204 1.07065C11.7513 0.902351 11.4533 0.901501 11.2825 1.0715L6.49995 5.85998L1.71573 1.07023C1.54573 0.902351 1.2478 0.903201 1.07865 1.07108C1.03667 1.11289 1.00343 1.16265 0.980886 1.21745C0.958338 1.27225 0.946931 1.331 0.947329 1.39025C0.947329 1.51095 0.994079 1.624 1.07865 1.70773L5.86245 6.49705L1.07908 11.2868C0.994668 11.3717 0.947397 11.4867 0.947636 11.6065C0.947875 11.7262 0.995605 11.841 1.08035 11.9256C1.16238 12.0068 1.2784 12.0535 1.39825 12.0535H1.4008C1.52108 12.0531 1.6371 12.0059 1.71743 11.9239L6.49995 7.1354L11.2842 11.9252C11.3688 12.0093 11.4818 12.0561 11.6017 12.0561C11.6609 12.0562 11.7196 12.0447 11.7744 12.0221C11.8292 11.9995 11.879 11.9663 11.9209 11.9244C11.9628 11.8824 11.996 11.8327 12.0186 11.7779C12.0412 11.7231 12.0527 11.6644 12.0526 11.6051C12.0526 11.4849 12.0058 11.3714 11.9208 11.2877L7.13703 6.49748Z" fill="#333333"/>
</svg>
