<svg width="35" height="35" viewBox="0 0 35 35" fill="none" xmlns="http://www.w3.org/2000/svg">
<path d="M24.5547 6.5625C25.351 6.56183 26.1395 6.72014 26.8738 7.02816C27.6082 7.33618 28.2737 7.7877 28.8313 8.35625C29.9801 9.52261 30.6241 11.0941 30.6241 12.7313C30.6241 14.3684 29.9801 15.9399 28.8313 17.1063L17.5 28.5797L6.16875 17.1063C5.01985 15.9399 4.37586 14.3684 4.37586 12.7313C4.37586 11.0941 5.01985 9.52261 6.16875 8.35625C6.72666 7.78811 7.39219 7.33682 8.12646 7.02876C8.86074 6.7207 9.64903 6.56203 10.4453 6.56203C11.2416 6.56203 12.0299 6.7207 12.7642 7.02876C13.4984 7.33682 14.164 7.78811 14.7219 8.35625L17.5 11.2L20.2672 8.37813C20.8231 7.8028 21.4893 7.34548 22.226 7.03351C22.9626 6.72155 23.7547 6.56135 24.5547 6.5625ZM24.5547 4.375C23.4671 4.37408 22.3902 4.59031 21.3873 5.01102C20.3844 5.43173 19.4755 6.04844 18.7141 6.825L17.5 8.05L16.2859 6.825C15.5235 6.04984 14.6145 5.4342 13.6117 5.01396C12.6089 4.59372 11.5326 4.37729 10.4453 4.37729C9.35806 4.37729 8.28168 4.59372 7.27892 5.01396C6.27616 5.4342 5.36709 6.04984 4.60469 6.825C3.05362 8.40397 2.18454 10.5288 2.18454 12.7422C2.18454 14.9555 3.05362 17.0804 4.60469 18.6594L17.5 31.7188L30.3953 18.6594C31.9464 17.0804 32.8155 14.9555 32.8155 12.7422C32.8155 10.5288 31.9464 8.40397 30.3953 6.825C29.6331 6.04943 28.7241 5.43336 27.7213 5.01273C26.7186 4.59209 25.6421 4.3753 24.5547 4.375Z" fill="#333333"/>
</svg>
