<svg width="35" height="35" viewBox="0 0 35 35" fill="none" xmlns="http://www.w3.org/2000/svg">
<path d="M17.5 2.1875C25.9561 2.1875 32.8125 9.04395 32.8125 17.5C32.8125 25.9561 25.9561 32.8125 17.5 32.8125C9.04395 32.8125 2.1875 25.9561 2.1875 17.5C2.1875 9.04395 9.04395 2.1875 17.5 2.1875ZM17.5 30.2148C24.5205 30.2148 30.2148 24.5205 30.2148 17.5C30.2148 10.4795 24.5205 4.78516 17.5 4.78516C10.4795 4.78516 4.78516 10.4795 4.78516 17.5C4.78516 24.5205 10.4795 30.2148 17.5 30.2148Z" fill="#333333"/>
<path d="M19.1406 11.4844C19.1406 11.9195 18.9678 12.3368 18.6601 12.6445C18.3524 12.9521 17.9351 13.125 17.5 13.125C17.0649 13.125 16.6476 12.9521 16.3399 12.6445C16.0322 12.3368 15.8594 11.9195 15.8594 11.4844C15.8594 11.0493 16.0322 10.632 16.3399 10.3243C16.6476 10.0166 17.0649 9.84375 17.5 9.84375C17.9351 9.84375 18.3524 10.0166 18.6601 10.3243C18.9678 10.632 19.1406 11.0493 19.1406 11.4844ZM16.6797 15.3125H18.3203C18.4707 15.3125 18.5938 15.4355 18.5938 15.5859V24.8828C18.5938 25.0332 18.4707 25.1562 18.3203 25.1562H16.6797C16.5293 25.1562 16.4062 25.0332 16.4062 24.8828V15.5859C16.4062 15.4355 16.5293 15.3125 16.6797 15.3125Z" fill="#333333"/>
</svg>
