<svg width="17" height="17" viewBox="0 0 17 17" fill="none" xmlns="http://www.w3.org/2000/svg">
<path d="M1.41666 8.49996C1.41666 12.4121 4.58787 15.5833 8.5 15.5833C12.4121 15.5833 15.5833 12.4121 15.5833 8.49996C15.5833 4.58783 12.4121 1.41663 8.5 1.41663C4.58787 1.41663 1.41666 4.58783 1.41666 8.49996Z" stroke="black" stroke-width="1.5" stroke-linecap="round" stroke-linejoin="round"/>
<path d="M9.20833 1.45203C9.20833 1.45203 11.3333 4.24994 11.3333 8.49994C11.3333 12.7499 9.20833 15.5479 9.20833 15.5479" stroke="black" stroke-width="1.5" stroke-linecap="round" stroke-linejoin="round"/>
<path d="M7.79166 15.5479C7.79166 15.5479 5.66666 12.7499 5.66666 8.49994C5.66666 4.24994 7.79166 1.45203 7.79166 1.45203" stroke="black" stroke-width="1.5" stroke-linecap="round" stroke-linejoin="round"/>
<path d="M1.86292 10.9791H15.1371" stroke="black" stroke-width="1.5" stroke-linecap="round" stroke-linejoin="round"/>
<path d="M1.86292 6.02075H15.1371" stroke="black" stroke-width="1.5" stroke-linecap="round" stroke-linejoin="round"/>
</svg>
