<svg width="35" height="35" viewBox="0 0 35 35" fill="none" xmlns="http://www.w3.org/2000/svg">
<path d="M19.6191 22.7432C19.5677 22.6923 19.4983 22.6637 19.426 22.6637C19.3536 22.6637 19.2842 22.6923 19.2329 22.7432L15.2612 26.7148C13.4223 28.5537 10.3188 28.7485 8.28851 26.7148C6.25482 24.6812 6.44965 21.5811 8.28851 19.7422L12.2602 15.7705C12.3662 15.6646 12.3662 15.4902 12.2602 15.3843L10.8998 14.0239C10.8484 13.973 10.779 13.9445 10.7067 13.9445C10.6344 13.9445 10.565 13.973 10.5136 14.0239L6.54193 17.9956C3.65033 20.8872 3.65033 25.5664 6.54193 28.4546C9.43353 31.3428 14.1127 31.3462 17.0009 28.4546L20.9726 24.4829C21.0786 24.377 21.0786 24.2026 20.9726 24.0967L19.6191 22.7432ZM28.4579 6.54199C25.5663 3.65039 20.8871 3.65039 17.999 6.54199L14.0239 10.5137C13.973 10.5651 13.9444 10.6345 13.9444 10.7068C13.9444 10.7791 13.973 10.8485 14.0239 10.8999L15.3808 12.2568C15.4868 12.3628 15.6611 12.3628 15.767 12.2568L19.7387 8.28516C21.5776 6.44629 24.6811 6.25146 26.7114 8.28516C28.7451 10.3188 28.5502 13.4189 26.7114 15.2578L22.7397 19.2295C22.6888 19.2809 22.6603 19.3503 22.6603 19.4226C22.6603 19.4949 22.6888 19.5643 22.7397 19.6157L24.1 20.9761C24.206 21.082 24.3803 21.082 24.4863 20.9761L28.4579 17.0044C31.3461 14.1128 31.3461 9.43359 28.4579 6.54199ZM20.853 12.7251C20.8016 12.6742 20.7322 12.6457 20.6599 12.6457C20.5875 12.6457 20.5181 12.6742 20.4667 12.7251L12.725 20.4634C12.6741 20.5148 12.6456 20.5842 12.6456 20.6565C12.6456 20.7288 12.6741 20.7982 12.725 20.8496L14.0786 22.2031C14.1845 22.3091 14.3588 22.3091 14.4648 22.2031L22.2031 14.4648C22.309 14.3589 22.309 14.1846 22.2031 14.0786L20.853 12.7251Z" fill="#333333"/>
</svg>
