<svg width="39" height="42" viewBox="0 0 39 42" fill="none" xmlns="http://www.w3.org/2000/svg">
<rect x="27" y="4" width="11" height="11" rx="3" fill="#D08181"/>
<path d="M8.50002 12.5H10.5L11.5 15L13.5 12.5H15C16.6 13.7 17 19.6667 17 22.5H6.50002C5.70002 20.1 7.50002 14.8333 8.50002 12.5Z" fill="#283C43"/>
<circle cx="10" cy="18" r="1" fill="white"/>
<path d="M12.3733 0C12.6622 0.0646467 12.9511 0.118519 13.2293 0.204715C14.9947 0.764986 16.1502 1.92863 16.7066 3.70641C16.7387 3.80338 16.7708 3.91113 16.7922 4.0081C17.0276 4.06197 17.2523 4.09429 17.4662 4.16971C18.365 4.4714 18.9 5.33335 18.8037 6.31383C18.7181 7.20811 17.9691 7.97309 17.0276 8.05929C16.7815 8.08084 16.6959 8.16704 16.621 8.38252C15.9041 10.4728 13.9676 11.8627 11.7956 11.8627C9.63431 11.8627 7.69772 10.4835 6.97017 8.38252C6.89527 8.16704 6.80968 8.07006 6.56359 8.04852C5.55785 7.95155 4.7982 7.11114 4.7661 6.09834C4.734 5.13941 5.41876 4.26668 6.3924 4.09429C6.72408 4.04042 6.83108 3.88958 6.92737 3.58789C7.59073 1.64849 8.93885 0.48485 10.9503 0.0754212C11.0252 0.0646467 11.1001 0.0215489 11.175 0C11.5709 0 11.9668 0 12.3733 0ZM10.4261 3.98655C10.3726 4.07274 10.3298 4.15894 10.2656 4.23436C9.34543 5.17174 8.23269 5.52729 6.94877 5.32258C6.59569 5.26871 6.26401 5.34413 6.13562 5.67814C6.05002 5.92595 6.06072 6.27073 6.16772 6.50777C6.31751 6.82023 6.64919 6.89565 7.00227 6.80945C7.63353 6.64784 7.83682 6.79868 7.98661 7.43437C8.0615 7.74683 8.1471 8.05929 8.27549 8.3502C8.99235 9.92327 10.5759 10.796 12.3413 10.5913C13.9248 10.4081 15.2622 9.13674 15.6046 7.4667C15.7436 6.79868 15.9683 6.64784 16.5996 6.80945C16.9527 6.89565 17.2309 6.79868 17.4448 6.51854C17.6374 6.24918 17.6481 5.95827 17.4769 5.68891C17.2844 5.37645 17.0062 5.27948 16.6424 5.33335C16.2465 5.398 15.8506 5.47342 15.4548 5.4842C13.6359 5.54884 11.9561 5.12864 10.4261 3.98655ZM15.519 4.22359C15.305 2.55355 13.3684 1.10977 11.5816 1.24984C9.90179 1.3899 8.115 2.84446 8.1685 4.06197C8.82116 3.91113 9.30263 3.54479 9.66641 2.9953C10.1479 2.28418 10.3512 2.27341 11.0145 2.84446C12.2985 3.97577 13.8392 4.29901 15.519 4.22359Z" fill="black"/>
<path d="M28.936 34.0473C28.936 34.2305 28.936 34.3813 28.936 34.5645C29.4282 34.6399 30.0809 34.4244 30.1558 35.2109C30.1986 35.6204 29.9311 35.7496 28.9574 35.8574C28.9574 36.2453 28.9574 36.6332 28.9574 37.0749C29.3212 37.0749 29.685 37.0641 30.0381 37.0749C30.466 37.0857 30.7442 37.3227 30.7442 37.6783C30.7549 38.0554 30.4768 38.3032 30.0167 38.314C29.685 38.3247 29.3533 38.3247 29.0109 38.3247C29.0002 38.3247 28.9895 38.3355 28.936 38.3463C28.936 38.9173 28.936 39.4992 28.936 40.1241C29.9204 40.1241 30.9047 40.1241 31.9105 40.1241C31.9105 31.9355 31.9105 23.7577 31.9105 15.526C31.7714 15.5152 31.6323 15.5045 31.4932 15.5045C30.7549 15.4937 30.0167 15.526 29.2891 15.4721C27.8875 15.3536 26.8497 14.2654 26.8283 12.8539C26.7962 10.7637 26.7962 8.67346 26.8283 6.59399C26.8604 5.10711 28.0266 3.98657 29.4924 3.9758C31.1187 3.96502 32.7557 3.9758 34.382 3.9758C34.8421 3.9758 35.1203 4.21283 35.131 4.57917C35.1417 4.96705 34.8528 5.20408 34.3606 5.20408C32.8199 5.20408 31.2899 5.20408 29.7492 5.20408C28.6044 5.20408 28.0587 5.76436 28.0587 6.91722C28.0587 8.80275 28.0587 10.6883 28.0587 12.5738C28.0587 13.7051 28.6044 14.2546 29.7385 14.2546C31.6323 14.2546 33.5368 14.2546 35.4306 14.2546C36.447 14.2546 37.0355 13.6728 37.0355 12.66C37.0462 10.7098 37.0355 8.75965 37.0355 6.7987C37.0355 6.36772 36.9178 5.99062 36.6289 5.64584C36.34 5.31183 36.3721 4.95627 36.661 4.71923C36.9392 4.49297 37.2922 4.53607 37.5811 4.8593C38.0305 5.35493 38.2659 5.94752 38.2659 6.62631C38.2766 8.68423 38.2873 10.7422 38.2659 12.8108C38.2552 14.2115 37.2281 15.3428 35.8478 15.4614C35.131 15.526 34.4034 15.4937 33.6866 15.5045C33.5261 15.5045 33.3656 15.5045 33.1837 15.5045C33.1837 23.7254 33.1837 31.9032 33.1837 40.1564C33.6117 40.1564 34.0503 40.1564 34.489 40.1564C34.8314 40.1564 35.1845 40.1456 35.5269 40.1672C35.8692 40.1887 36.1046 40.4365 36.1153 40.7598C36.1153 41.083 35.8906 41.3416 35.5482 41.3847C35.4306 41.3955 35.3129 41.3955 35.1845 41.3955C24.9773 41.3955 14.7808 41.3955 4.57357 41.3955C4.47728 41.3955 4.38099 41.3955 4.29539 41.3955C3.89951 41.3739 3.65343 41.1153 3.66413 40.7598C3.67483 40.415 3.91021 40.178 4.29539 40.1672C5.05505 40.1564 5.8147 40.1672 6.58506 40.1672C6.68135 40.1672 6.76695 40.1672 6.89534 40.1672C5.9217 33.1422 5.52582 26.1173 5.8789 19.0277C5.69701 19.0277 5.44022 19.0385 5.17274 19.0277C4.26329 18.9954 3.35385 18.9954 2.4551 18.92C2.12342 18.8876 1.78104 18.7368 1.48146 18.5752C0.967887 18.295 0.721802 17.8317 0.721802 17.2499C0.732501 16.2479 1.11768 15.4183 1.92013 14.8149C2.78678 14.1684 3.79252 13.9098 4.83036 13.7805C5.56862 13.6836 6.31757 13.6513 7.06653 13.6082C7.29121 13.5974 7.41961 13.5435 7.5159 13.3172C8.13646 11.8088 7.99737 12.0243 9.49528 12.0028C9.65578 12.0028 9.81627 12.0135 9.97676 12.0028C10.3298 11.9812 10.5866 12.1213 10.7792 12.423C11.0895 12.897 11.4105 13.3496 11.7743 13.8775C12.0952 13.4142 12.4162 12.9832 12.6837 12.5307C12.9298 12.1213 13.2508 11.9597 13.7108 11.992C14.096 12.0135 14.4812 12.0028 14.8771 11.992C15.2729 11.9812 15.5725 12.1321 15.6902 12.5092C15.8721 13.1233 16.3001 13.4789 16.803 13.8452C18.3544 14.9657 19.3066 16.5496 19.9807 18.3058C21.0506 21.0748 21.2325 23.8978 20.3551 26.7638C20.2054 27.2486 19.9272 27.4533 19.5527 27.3456C19.1568 27.2271 19.0284 26.9038 19.1782 26.3974C20.2589 22.6371 19.5848 19.1893 17.2951 16.0432C17.1774 15.8816 17.0383 15.7415 16.8565 15.6122C17.0062 16.2263 17.156 16.8405 17.2951 17.4546C17.8087 19.8142 17.9157 22.2062 17.8194 24.6089C17.6803 27.7873 17.5733 30.955 17.3593 34.1335C17.2309 35.9975 16.9206 37.8507 16.696 39.7039C16.6746 39.8332 16.6639 39.9625 16.6532 40.1349C17.8087 40.1349 18.9428 40.1349 20.0877 40.1349C20.0877 39.5423 20.0877 38.9604 20.0877 38.3247C19.7025 38.3247 19.3387 38.3247 18.9642 38.3247C18.5042 38.314 18.2474 38.0769 18.2581 37.6891C18.2688 37.3119 18.5149 37.1072 18.9642 37.0965C19.3387 37.0857 19.7025 37.0965 20.0984 37.0965C20.0984 36.6655 20.0984 36.2776 20.0984 35.8789C19.6169 35.7604 18.8251 36.0621 18.8572 35.1894C18.8893 34.4028 19.6062 34.6722 20.0984 34.586C20.0984 34.4028 20.0984 34.2412 20.0984 34.0581C19.5955 33.9611 18.8786 34.2197 18.8465 33.3685C18.8251 32.9375 19.0926 32.819 20.077 32.7651C20.1733 32.4203 20.3016 32.0756 20.7617 32.0971C21.1469 32.1187 21.3181 32.3772 21.3609 32.7544C23.4473 32.7544 25.5336 32.7544 27.6307 32.7544C27.7056 32.4096 27.8447 32.1079 28.262 32.0971C28.7007 32.0863 28.8504 32.388 28.9253 32.7544C29.4175 32.819 30.0381 32.6358 30.1344 33.39C30.2093 33.7672 29.9525 33.9072 28.936 34.0473ZM7.02373 23.1866C6.68135 25.5893 7.64429 38.6049 8.27556 40.1241C8.57514 40.2103 8.67143 40.1025 8.69283 39.7901C8.76773 38.6264 8.85332 37.452 8.96032 36.2884C9.00311 35.8358 9.292 35.5988 9.66647 35.6419C10.0196 35.685 10.2228 35.9867 10.1907 36.4177C10.1586 36.7517 10.1158 37.0857 10.0944 37.4197C10.0303 38.314 9.96606 39.2082 9.90186 40.1133C11.2072 40.1133 12.4697 40.1133 13.7536 40.1133C13.7429 39.8978 13.7322 39.7254 13.7215 39.553C13.6038 38.1847 13.5396 36.8055 13.3471 35.448C12.9512 32.5604 12.4804 29.6729 12.031 26.7961C12.0096 26.6776 11.8919 26.5806 11.817 26.4836C11.7529 26.5806 11.6459 26.6776 11.6245 26.7853C11.4105 27.8628 11.2072 28.951 11.0253 30.0392C10.822 31.2783 10.6615 32.5173 10.4796 33.7564C10.4154 34.1658 10.1586 34.3813 9.80557 34.349C9.44179 34.3166 9.2278 34.015 9.2599 33.5948C9.2706 33.4224 9.3027 33.25 9.33479 33.0776C9.74137 30.6641 10.1479 28.2506 10.5545 25.8372C10.6294 25.4062 10.8434 25.2446 11.2714 25.2338C11.6138 25.223 11.9668 25.2338 12.3092 25.2338C12.7907 25.2446 12.994 25.4062 13.0903 25.8695C14.0532 30.4594 14.6631 35.0924 14.9413 39.7793C14.9627 40.1456 15.0804 40.2318 15.4334 40.0918C16.3857 34.5106 16.5569 28.8648 16.6532 23.1974C13.4006 22.7664 10.2121 22.7664 7.02373 23.1866ZM7.5159 17.627C7.90108 17.6593 8.14716 17.6701 8.38255 17.3253C8.92822 16.528 10.0944 16.3772 10.715 17.0991C11.1751 17.6378 11.6031 18.1765 12.2022 18.586C12.4697 18.7691 12.4483 19.1893 12.2343 19.4156C11.9882 19.6742 11.6994 19.7065 11.4105 19.5018C11.2821 19.4156 11.1537 19.3186 11.036 19.2432C10.1265 20.1375 9.05661 20.159 8.39325 19.3294C8.02947 18.8661 7.86898 18.823 7.22702 19.0062C7.14142 19.9543 7.04513 20.9348 6.94883 21.9584C10.2228 21.5597 13.422 21.5705 16.6104 21.9368C16.6104 21.6567 16.6211 21.4412 16.6104 21.2257C16.4285 18.6075 15.8721 16.0647 14.8664 13.6405C14.8022 13.4896 14.6417 13.2741 14.5347 13.2741C14.203 13.2849 13.8178 13.0802 13.561 13.5004C13.1866 14.093 12.78 14.6641 12.3841 15.2243C12.0417 15.7092 11.5924 15.7092 11.25 15.2243C10.8969 14.7179 10.5545 14.2115 10.2014 13.6944C9.91256 13.2741 9.47389 13.1125 9.01381 13.2526C8.94962 13.2741 8.87472 13.3388 8.85332 13.4034C8.25416 14.7395 7.82618 16.1402 7.5159 17.627ZM21.393 40.1025C23.5222 40.1025 25.5978 40.1025 27.6628 40.1025C27.6628 39.4884 27.6628 38.8958 27.6628 38.3355C25.555 38.3355 23.4794 38.3355 21.393 38.3355C21.393 38.9389 21.393 39.5207 21.393 40.1025ZM6.92744 14.8257C6.56366 14.8472 6.23198 14.8149 5.911 14.8795C5.02295 15.0412 4.1349 15.2028 3.26825 15.4506C2.70119 15.6122 2.27321 16.0216 2.08062 16.6142C1.84524 17.3253 1.99503 17.6378 2.72258 17.6809C3.81392 17.7455 4.90525 17.724 5.99659 17.7024C6.09289 17.7024 6.24268 17.5301 6.27477 17.4223C6.48876 16.6573 6.68135 15.8923 6.88464 15.1274C6.90604 15.0412 6.90604 14.955 6.92744 14.8257ZM21.393 37.0426C23.5008 37.0426 25.5871 37.0426 27.6628 37.0426C27.6628 36.6224 27.6628 36.2453 27.6628 35.8466C25.5657 35.8466 23.4901 35.8466 21.393 35.8466C21.393 36.2561 21.393 36.6332 21.393 37.0426ZM27.6735 34.0257C25.5657 34.0257 23.4901 34.0257 21.393 34.0257C21.393 34.2197 21.393 34.3813 21.393 34.5645C23.5008 34.5645 25.5764 34.5645 27.6735 34.5645C27.6735 34.3813 27.6735 34.2305 27.6735 34.0257ZM9.66647 18.8553C9.84836 18.5967 10.041 18.4459 10.0303 18.3166C10.0196 18.1765 9.83766 17.9718 9.68787 17.9287C9.45249 17.8641 9.2599 18.058 9.292 18.3058C9.3134 18.4459 9.47389 18.586 9.66647 18.8553Z" fill="black"/>
<path d="M10.7578 7.89767C10.7471 8.04851 10.7578 8.19936 10.7364 8.33942C10.6722 8.67343 10.4689 8.86737 10.1373 8.87815C9.80558 8.87815 9.57019 8.68421 9.5381 8.3502C9.4953 8.03774 9.4953 7.70373 9.5274 7.39127C9.55949 7.03571 9.79488 6.831 10.148 6.84177C10.4903 6.85255 10.6829 7.05726 10.7364 7.3805C10.7578 7.55289 10.7364 7.72528 10.7364 7.89767C10.7471 7.89767 10.7471 7.89767 10.7578 7.89767Z" fill="black"/>
<path d="M13.2722 7.88691C13.2722 8.03775 13.2829 8.17782 13.2722 8.32866C13.2294 8.67344 13.0154 8.85661 12.6837 8.86738C12.352 8.87816 12.1166 8.68422 12.0738 8.35021C12.031 8.0162 12.031 7.68219 12.0738 7.34819C12.1166 7.01418 12.3413 6.83101 12.6837 6.82024C13.0047 6.80946 13.2508 7.0465 13.2829 7.39128C13.2936 7.56367 13.2722 7.72529 13.2722 7.88691Z" fill="black"/>
<path d="M32.576 12.112C33.136 12.112 33.704 11.92 34.144 11.616L33.744 10.896C33.424 11.096 33.104 11.208 32.736 11.208C32.072 11.208 31.592 10.824 31.496 10.088H34.256C34.288 9.984 34.312 9.768 34.312 9.552C34.312 8.312 33.672 7.408 32.44 7.408C31.368 7.408 30.352 8.312 30.352 9.768C30.352 11.24 31.328 12.112 32.576 12.112ZM31.48 9.312C31.568 8.656 31.984 8.32 32.456 8.32C33.032 8.32 33.304 8.704 33.304 9.312H31.48Z" fill="black"/>
</svg>
