<svg width="31" height="31" viewBox="0 0 31 31" fill="none" xmlns="http://www.w3.org/2000/svg">
<g clip-path="url(#clip0_143_5350)">
<path fill-rule="evenodd" clip-rule="evenodd" d="M30.6454 0.218778C30.7564 0.309716 30.8457 0.424151 30.907 0.553819C30.9683 0.683488 31.0001 0.825155 31 0.96859V28.0936C30.9999 28.3175 30.9222 28.5344 30.7802 28.7075C30.6382 28.8805 30.4407 28.9991 30.2211 29.043L20.5336 30.9805C20.4083 31.0054 20.2792 31.0054 20.1539 30.9805L10.6562 29.0817L1.15863 30.9805C1.01813 31.0085 0.873164 31.0051 0.734159 30.9704C0.595153 30.9357 0.465573 30.8706 0.354755 30.7798C0.243937 30.689 0.154638 30.5748 0.0932941 30.4453C0.0319497 30.3158 8.65147e-05 30.1744 0 30.0311L0 2.90609C0.000135203 2.68222 0.0778025 2.46531 0.219797 2.29223C0.361791 2.11915 0.559346 2.00059 0.778875 1.95672L10.4664 0.0192154C10.5917 -0.00583793 10.7208 -0.00583793 10.8461 0.0192154L20.3438 1.91797L29.8414 0.0192154C29.9818 -0.00904148 30.1268 -0.00579905 30.2658 0.0287091C30.4049 0.0632173 30.5345 0.128132 30.6454 0.218778ZM19.375 3.70046L11.625 2.15047V27.2992L19.375 28.8492V3.70046ZM21.3125 28.8492L29.0625 27.2992V2.15047L21.3125 3.70046V28.8492ZM9.6875 27.2992V2.15047L1.9375 3.70046V28.8492L9.6875 27.2992Z" fill="#333333"/>
</g>
<defs>
<clipPath id="clip0_143_5350">
<rect width="31" height="31" fill="white"/>
</clipPath>
</defs>
</svg>
